<svg width="80" height="80" viewBox="0 0 80 80" fill="none" xmlns="http://www.w3.org/2000/svg">
<circle cx="40" cy="40" r="40" fill="#01BF99"/>
<path d="M58.3333 51.6667C58.3333 52.5507 57.9821 53.3986 57.357 54.0237C56.7319 54.6488 55.884 55 55 55H25C24.1159 55 23.2681 54.6488 22.6429 54.0237C22.0178 53.3986 21.6666 52.5507 21.6666 51.6667V33.3333C21.6666 32.4493 22.0178 31.6014 22.6429 30.9763C23.2681 30.3512 24.1159 30 25 30H31.6666L35 25H45L48.3333 30H55C55.884 30 56.7319 30.3512 57.357 30.9763C57.9821 31.6014 58.3333 32.4493 58.3333 33.3333V51.6667Z" stroke="white" stroke-width="3" stroke-linecap="round" stroke-linejoin="round"/>
<path d="M40 48.3333C43.6819 48.3333 46.6666 45.3486 46.6666 41.6667C46.6666 37.9848 43.6819 35 40 35C36.3181 35 33.3333 37.9848 33.3333 41.6667C33.3333 45.3486 36.3181 48.3333 40 48.3333Z" stroke="white" stroke-width="3" stroke-linecap="round" stroke-linejoin="round"/>
</svg>
