<svg width="45" height="45" viewBox="0 0 45 45" fill="none" xmlns="http://www.w3.org/2000/svg">
<rect width="45" height="45" rx="5" fill="#01BF99"/>
<path d="M21.3826 13.455C21.7326 13.3617 21.9892 13.35 22.1526 13.42C22.3392 13.49 22.6192 13.7233 22.9926 14.12C23.3659 14.47 23.5759 14.7033 23.6226 14.82C23.6926 14.9367 23.7276 15.135 23.7276 15.415C23.7276 15.7883 23.7859 16.1733 23.9026 16.57C24.0426 16.9667 24.0892 17.2817 24.0426 17.515C23.6692 19.965 23.7392 21.2133 24.2526 21.26C24.3226 21.26 24.3926 21.2483 24.4626 21.225C24.6726 21.1783 24.9292 21.19 25.2326 21.26C25.7226 21.4 26.0492 21.4 26.2126 21.26C26.3292 21.1433 26.4926 21.1433 26.7026 21.26C26.9126 21.3767 27.0526 21.4 27.1226 21.33C27.1926 21.26 27.3326 21.225 27.5426 21.225C27.7526 21.225 27.8926 21.2017 27.9626 21.155C28.0326 21.085 28.3242 21.0383 28.8376 21.015C29.3976 20.9683 29.7942 20.9333 30.0276 20.91C30.5409 20.84 31.0192 21.2017 31.4626 21.995C31.9059 22.765 31.9876 23.4067 31.7076 23.92C31.5209 24.27 31.2526 24.5267 30.9026 24.69C30.5759 24.83 30.0742 24.9 29.3976 24.9C28.6509 24.9233 27.9626 25.005 27.3326 25.145C26.5859 25.3083 26.1192 25.39 25.9326 25.39C25.7459 25.39 25.5476 25.3433 25.3376 25.25C24.8709 25.0167 24.5909 24.9817 24.4976 25.145C24.4509 25.1917 24.3342 25.215 24.1476 25.215C23.8676 25.215 23.8326 25.4833 24.0426 26.02C24.1359 26.23 24.1709 26.5683 24.1476 27.035C24.1476 27.5017 24.0892 27.8167 23.9726 27.98C23.8792 28.12 23.8442 28.33 23.8676 28.61C23.9142 28.8667 23.9959 29.0883 24.1126 29.275C24.2292 29.4383 24.2642 29.695 24.2176 30.045C24.1942 30.255 24.1592 30.605 24.1126 31.095C24.0892 31.4683 24.0542 31.69 24.0076 31.76C23.9609 31.8067 23.8909 31.9933 23.7976 32.32C23.7276 32.6233 23.6226 32.8333 23.4826 32.95C23.3426 33.0433 23.0042 33.1833 22.4676 33.37C22.0009 33.51 21.6859 33.5683 21.5226 33.545C21.3592 33.4983 21.1026 33.3 20.7526 32.95C20.5192 32.7167 20.3792 32.5533 20.3326 32.46C20.2859 32.3667 20.2626 32.2267 20.2626 32.04C20.2626 31.76 20.1926 31.5033 20.0526 31.27C19.9126 31.0367 19.8426 30.6983 19.8426 30.255C19.8426 29.8117 19.8192 29.4967 19.7726 29.31C19.7259 29.1467 19.7726 28.925 19.9126 28.645C20.0526 28.365 20.0876 28.1317 20.0176 27.945C19.9476 27.735 19.9126 27.42 19.9126 27C19.9126 26.5567 19.9359 26.2533 19.9826 26.09C20.0992 25.8333 20.0526 25.6 19.8426 25.39C19.6326 25.1567 19.4109 25.0983 19.1776 25.215C19.0376 25.285 18.8042 25.32 18.4776 25.32C18.1509 25.32 17.9642 25.355 17.9176 25.425C17.8476 25.5183 17.3226 25.4833 16.3426 25.32C15.9226 25.25 15.3159 25.2383 14.5226 25.285C13.8226 25.3317 13.2509 25.1917 12.8076 24.865C12.3642 24.5383 12.1426 24.095 12.1426 23.535C12.1426 23.1617 12.1776 22.9517 12.2476 22.905C12.2942 22.8817 12.3176 22.8233 12.3176 22.73C12.3176 22.6133 12.4109 22.415 12.5976 22.135C12.8076 21.8317 12.9476 21.68 13.0176 21.68C13.0876 21.68 13.2626 21.5983 13.5426 21.435C13.8226 21.2717 14.1259 21.2133 14.4526 21.26C15.3159 21.3767 16.5642 21.365 18.1976 21.225C18.8742 21.155 19.3059 21.12 19.4926 21.12C19.6559 21.12 19.7492 21.0733 19.7726 20.98C19.7959 20.84 19.8192 19.7317 19.8426 17.655V15.24L20.2626 14.505C20.4492 14.1317 20.6126 13.8867 20.7526 13.77C20.8926 13.63 21.1026 13.525 21.3826 13.455Z" fill="white"/>
</svg>
