<svg width="15" height="15" viewBox="0 0 15 15" fill="none" xmlns="http://www.w3.org/2000/svg">
<path d="M6.6 0.099902C6.85 0.0332352 7.03333 0.024902 7.15 0.0749024C7.28333 0.124902 7.48333 0.291568 7.75 0.574902C8.01667 0.824902 8.16667 0.991568 8.2 1.0749C8.25 1.15823 8.275 1.2999 8.275 1.4999C8.275 1.76657 8.31667 2.04157 8.4 2.3249C8.5 2.60823 8.53333 2.83323 8.5 2.9999C8.23333 4.7499 8.28333 5.64157 8.65 5.6749C8.7 5.6749 8.75 5.66657 8.8 5.6499C8.95 5.61657 9.13333 5.6249 9.35 5.6749C9.7 5.7749 9.93333 5.7749 10.05 5.6749C10.1333 5.59157 10.25 5.59157 10.4 5.6749C10.55 5.75824 10.65 5.7749 10.7 5.7249C10.75 5.6749 10.85 5.6499 11 5.6499C11.15 5.6499 11.25 5.63324 11.3 5.5999C11.35 5.5499 11.5583 5.51657 11.925 5.4999C12.325 5.46657 12.6083 5.44157 12.775 5.4249C13.1417 5.3749 13.4833 5.63324 13.8 6.1999C14.1167 6.7499 14.175 7.20824 13.975 7.5749C13.8417 7.8249 13.65 8.00824 13.4 8.1249C13.1667 8.2249 12.8083 8.2749 12.325 8.2749C11.7917 8.29157 11.3 8.3499 10.85 8.4499C10.3167 8.56657 9.98333 8.6249 9.85 8.6249C9.71667 8.6249 9.575 8.59157 9.425 8.5249C9.09167 8.35824 8.89167 8.33324 8.825 8.4499C8.79167 8.48324 8.70833 8.4999 8.575 8.4999C8.375 8.4999 8.35 8.69157 8.5 9.0749C8.56667 9.2249 8.59167 9.46657 8.575 9.7999C8.575 10.1332 8.53333 10.3582 8.45 10.4749C8.38333 10.5749 8.35833 10.7249 8.375 10.9249C8.40833 11.1082 8.46667 11.2666 8.55 11.3999C8.63333 11.5166 8.65833 11.6999 8.625 11.9499C8.60833 12.0999 8.58333 12.3499 8.55 12.6999C8.53333 12.9666 8.50833 13.1249 8.475 13.1749C8.44167 13.2082 8.39167 13.3416 8.325 13.5749C8.275 13.7916 8.2 13.9416 8.1 14.0249C8 14.0916 7.75833 14.1916 7.375 14.3249C7.04167 14.4249 6.81667 14.4666 6.7 14.4499C6.58333 14.4166 6.4 14.2749 6.15 14.0249C5.98333 13.8582 5.88333 13.7416 5.85 13.6749C5.81667 13.6082 5.8 13.5082 5.8 13.3749C5.8 13.1749 5.75 12.9916 5.65 12.8249C5.55 12.6582 5.5 12.4166 5.5 12.0999C5.5 11.7832 5.48333 11.5582 5.45 11.4249C5.41667 11.3082 5.45 11.1499 5.55 10.9499C5.65 10.7499 5.675 10.5832 5.625 10.4499C5.575 10.2999 5.55 10.0749 5.55 9.7749C5.55 9.45824 5.56667 9.24157 5.6 9.1249C5.68333 8.94157 5.65 8.7749 5.5 8.6249C5.35 8.45824 5.19167 8.41657 5.025 8.4999C4.925 8.5499 4.75833 8.5749 4.525 8.5749C4.29167 8.5749 4.15833 8.5999 4.125 8.6499C4.075 8.71657 3.7 8.69157 3 8.5749C2.7 8.5249 2.26667 8.51657 1.7 8.5499C1.2 8.58324 0.791667 8.48324 0.475 8.2499C0.158333 8.01657 9.31323e-09 7.6999 9.31323e-09 7.2999C9.31323e-09 7.03324 0.025 6.88324 0.075 6.8499C0.108333 6.83324 0.125 6.79157 0.125 6.7249C0.125 6.64157 0.191667 6.4999 0.325 6.2999C0.475 6.08324 0.575 5.9749 0.625 5.9749C0.675 5.9749 0.8 5.91657 1 5.7999C1.2 5.68324 1.41667 5.64157 1.65 5.6749C2.26667 5.75824 3.15833 5.7499 4.325 5.6499C4.80833 5.5999 5.11667 5.5749 5.25 5.5749C5.36667 5.5749 5.43333 5.54157 5.45 5.4749C5.46667 5.3749 5.48333 4.58324 5.5 3.0999V1.3749L5.8 0.849901C5.93333 0.583235 6.05 0.408235 6.15 0.324902C6.25 0.224901 6.4 0.149901 6.6 0.099902Z" fill="#01BF99"/>
</svg>
