<svg width="170" height="170" viewBox="0 0 170 170" fill="none" xmlns="http://www.w3.org/2000/svg">
<rect width="170" height="170" fill="#E2F4E2"/>
<path d="M63.5037 25.5195C64.4013 25.4379 65.0541 25.4379 65.4621 25.5195C65.9109 25.5603 66.4413 25.5807 67.0533 25.5807C67.7469 25.5807 68.4609 25.7031 69.1953 25.9479C69.9705 26.2335 70.4193 26.3559 70.5417 26.3151C70.9905 26.1519 71.7045 26.6415 72.6837 27.7839C73.2957 28.5183 73.6629 29.0691 73.7853 29.4363C73.9485 29.7627 73.9893 30.2319 73.9077 30.8439C73.8669 31.5375 73.9077 32.1087 74.0301 32.5575C74.1525 32.9655 74.2137 33.5571 74.2137 34.3323C74.2137 35.1075 74.2953 35.6175 74.4585 35.8623C74.6625 36.1887 74.6013 36.9435 74.2749 38.1267C74.0709 38.7795 73.9893 39.4119 74.0301 40.0239C74.1117 40.6359 74.0709 41.2071 73.9077 41.7375C73.7853 42.1863 73.6629 42.8187 73.5405 43.6347C73.4589 44.4099 73.3161 44.9403 73.1121 45.2259C72.9489 45.5115 72.7653 45.9399 72.5613 46.5111C72.3573 47.0007 72.1737 47.3067 72.0105 47.4291C71.8881 47.5515 71.5821 47.6127 71.0925 47.6127C70.5213 47.6127 70.1133 47.7351 69.8685 47.9799C69.1749 48.5919 67.9101 48.8367 66.0741 48.7143C64.8501 48.6327 63.6261 48.5919 62.4021 48.5919C61.1781 48.5511 60.4437 48.4695 60.1989 48.3471C59.9541 48.2247 59.6889 48.2043 59.4033 48.2859C56.8737 49.2243 54.6909 49.1223 52.8549 47.9799C51.0189 46.8375 50.1009 45.0219 50.1009 42.5331C50.1417 41.5947 50.1009 40.9623 49.9785 40.6359C49.6929 39.9015 49.8153 39.2691 50.3457 38.7387C50.7945 38.3307 50.8557 37.4331 50.5293 36.0459C50.4069 35.5155 50.4069 34.9239 50.5293 34.2711C50.6925 33.5775 50.6721 32.9859 50.4681 32.4963C50.3049 32.0067 50.3253 31.5171 50.5293 31.0275C50.7333 30.5379 51.0801 30.1911 51.5697 29.9871C52.3041 29.6199 52.6713 29.1711 52.6713 28.6407C52.6713 28.3143 52.8345 28.0083 53.1609 27.7227C53.4873 27.3963 53.8545 27.1923 54.2625 27.1107C54.7521 27.0291 55.2825 26.8863 55.8537 26.6823C56.4249 26.4783 56.9757 26.3967 57.5061 26.4375C57.9957 26.5191 58.3425 26.4579 58.5465 26.2539C58.7505 26.0499 59.1993 25.9887 59.8929 26.0703C60.5457 26.1111 61.0761 26.0499 61.4841 25.8867C61.9329 25.7235 62.6061 25.6011 63.5037 25.5195ZM66.6861 32.3739C66.1149 32.3739 65.5437 32.3535 64.9725 32.3127C64.4013 32.2719 63.8913 32.3331 63.4425 32.4963C62.9937 32.6595 62.6061 32.7411 62.2797 32.7411C61.9533 32.7411 61.7493 32.7819 61.6677 32.8635C61.5453 32.9859 60.6273 33.0267 58.9137 32.9859C58.5465 32.9859 58.2813 33.0471 58.1181 33.1695C57.9549 33.2919 57.9345 33.4551 58.0569 33.6591C58.1385 33.9039 58.1589 34.6179 58.1181 35.8011C58.1181 36.4539 58.1385 37.2903 58.1793 38.3103C58.2609 39.2895 58.3221 39.8811 58.3629 40.0851C58.4853 40.4115 58.5465 40.8195 58.5465 41.3091V42.1047L60.8109 42.0435C62.2797 41.9619 63.1161 41.8803 63.3201 41.7987C63.5241 41.6763 63.9933 41.6151 64.7277 41.6151C65.3805 41.6151 65.7885 41.5539 65.9517 41.4315C66.1149 41.3091 66.1965 41.0235 66.1965 40.5747C66.1965 40.3299 66.3597 39.9627 66.6861 39.4731C67.0533 39.0243 67.1961 38.5755 67.1145 38.1267C67.0737 38.0043 67.0329 37.8003 66.9921 37.5147C66.9513 37.1883 66.9309 36.9639 66.9309 36.8415C66.8493 36.4335 66.8901 36.1275 67.0533 35.9235C67.2573 35.7195 67.3185 35.4339 67.2369 35.0667C67.0329 33.8835 67.0329 33.2103 67.2369 33.0471C67.7673 32.5983 67.5837 32.3739 66.6861 32.3739ZM70.8477 54.8955C72.3165 54.1611 73.7649 54.1407 75.1929 54.8343C75.6825 55.0791 76.0905 55.1403 76.4169 55.0179C77.0697 54.7323 77.5389 54.9567 77.8245 55.6911C77.9469 55.9359 78.2325 56.2827 78.6813 56.7315C79.1709 57.2211 79.3545 57.7923 79.2321 58.4451C79.1097 59.0979 78.7017 59.6079 78.0081 59.9751C77.6001 60.1791 77.2125 60.4443 76.8453 60.7707C76.4373 61.0971 75.8457 61.2807 75.0705 61.3215C74.2545 61.3623 73.6425 61.4439 73.2345 61.5663C71.8065 61.9335 70.4805 62.0559 69.2565 61.9335C68.3997 61.8519 67.8489 61.9131 67.6041 62.1171C67.4001 62.2803 67.3389 62.7291 67.4205 63.4635C67.4613 63.9939 67.4613 64.3611 67.4205 64.5651C67.3797 64.7283 67.2369 65.0139 66.9921 65.4219C66.7065 65.9115 66.5433 66.4623 66.5025 67.0743C66.4617 67.6863 66.5637 68.1555 66.8085 68.4819C66.9717 68.7267 67.0125 69.1143 66.9309 69.6447C66.7677 70.7871 66.7677 71.7867 66.9309 72.6435C67.0941 73.4595 66.9513 74.1939 66.5025 74.8467C66.0945 75.5403 65.4825 75.9687 64.6665 76.1319C63.4425 76.4175 62.3001 76.3359 61.2393 75.8871C60.1785 75.4791 59.6481 74.9079 59.6481 74.1735C59.6481 73.7655 59.5665 73.4391 59.4033 73.1943C59.2401 72.9495 59.1789 72.4803 59.2197 71.7867C59.3013 71.1339 59.4849 70.6647 59.7705 70.3791C60.3417 69.6855 60.3825 69.0327 59.8929 68.4207C59.5665 68.0127 59.3217 67.4007 59.1585 66.5847C59.0361 65.7687 59.0973 65.2383 59.3421 64.9935C59.5461 64.7895 59.6481 64.6467 59.6481 64.5651C59.6481 64.4427 59.5461 64.1163 59.3421 63.5859L59.0361 62.7291L55.9761 62.7903C54.5481 62.8311 53.6505 62.8311 53.2833 62.7903C52.9161 62.7495 52.6101 62.6679 52.3653 62.5455C51.7125 62.1783 51.3045 61.9743 51.1413 61.9335C50.9781 61.8927 50.6925 61.9539 50.2845 62.1171C49.5909 62.3619 48.8769 62.3415 48.1425 62.0559C47.4081 61.7703 46.8573 61.3011 46.4901 60.6483C46.1229 60.0363 45.9801 59.3019 46.0617 58.4451C46.1841 57.5475 46.4697 56.9967 46.9185 56.7927C48.0201 56.2215 48.9585 55.9563 49.7337 55.9971C50.2641 55.9971 50.7945 55.9563 51.3249 55.8747C51.8145 55.8339 52.4673 55.8951 53.2833 56.0583C54.1401 56.2215 54.7317 56.2215 55.0581 56.0583C55.3845 55.8951 55.8537 55.8339 56.4657 55.8747C58.1385 56.0379 59.1993 56.1195 59.6481 56.1195C60.1377 56.1195 60.5049 56.0175 60.7497 55.8135C60.9945 55.6095 61.1985 55.5075 61.3617 55.5075C61.5249 55.5075 61.9533 55.5687 62.6469 55.6911C63.5445 55.8543 64.1973 55.8543 64.6053 55.6911C64.9725 55.5279 65.9313 55.4463 67.4817 55.4463C68.6241 55.4055 69.3381 55.3647 69.6237 55.3239C69.9093 55.2831 70.3173 55.1403 70.8477 54.8955ZM115.05 26.5599C116.151 26.2335 117.151 26.3967 118.049 27.0495C118.987 27.6615 119.456 28.5183 119.456 29.6199C119.456 30.1911 119.558 30.6399 119.762 30.9663C119.966 31.2111 120.15 31.7007 120.313 32.4351C120.517 33.1695 120.619 33.8019 120.619 34.3323C120.619 35.0259 120.599 35.9031 120.558 36.9639C120.517 38.1471 120.578 39.1671 120.741 40.0239C120.986 41.1663 121.109 41.8803 121.109 42.1659C121.149 42.4107 121.088 42.6555 120.925 42.9003C120.476 43.4715 120.395 43.9611 120.68 44.3691C120.843 44.5731 120.884 45.0219 120.803 45.7155C120.721 46.4091 120.782 47.0211 120.986 47.5515C121.149 48.0819 121.17 48.5715 121.047 49.0203C120.966 49.4283 120.945 49.9587 120.986 50.6115C121.027 51.1419 120.884 51.7743 120.558 52.5087C120.272 53.2023 119.946 53.6103 119.579 53.7327C118.64 54.0591 118.008 54.2427 117.681 54.2835C117.396 54.2835 117.008 54.1611 116.519 53.9163C115.172 53.2227 114.499 52.5903 114.499 52.0191C114.499 51.7743 114.356 51.4071 114.071 50.9175C113.867 50.5095 113.744 49.5507 113.703 48.0411C113.663 46.5315 113.744 45.5931 113.948 45.2259C114.071 44.9811 114.173 44.6139 114.254 44.1243L114.377 43.3287L113.397 43.4511C112.745 43.5327 112.235 43.5123 111.867 43.3899C111.5 43.2675 111.011 43.3083 110.399 43.5123C109.746 43.7163 109.215 43.7775 108.807 43.6959C108.399 43.6143 108.032 43.5735 107.706 43.5735C107.257 43.5735 106.461 43.0023 105.319 41.8599C105.033 41.5743 104.891 41.2071 104.891 40.7583C104.891 40.3095 105.033 39.9423 105.319 39.6567C105.605 39.3303 105.747 39.1059 105.747 38.9835C105.747 38.7387 105.931 38.4939 106.298 38.2491C106.665 37.9635 107.012 37.8207 107.339 37.8207C107.747 37.8207 108.155 37.6371 108.563 37.2699C108.889 36.9843 109.154 36.8211 109.358 36.7803C109.603 36.7395 110.235 36.7191 111.255 36.7191C112.643 36.7191 113.397 36.6375 113.52 36.4743C113.642 36.3111 113.683 35.4543 113.642 33.9039C113.601 32.3535 113.499 31.3335 113.336 30.8439C113.132 30.2727 113.091 29.8239 113.214 29.4975C113.336 29.1711 113.397 28.7835 113.397 28.3347C113.397 27.9675 113.54 27.6207 113.826 27.2943C114.152 26.9271 114.56 26.6823 115.05 26.5599ZM89.407 28.8855C90.2638 28.8039 91.0186 28.7835 91.6714 28.8243C92.8546 28.9059 93.7726 28.9059 94.4254 28.8243C94.8742 28.7427 95.2414 28.8039 95.527 29.0079C95.7718 29.2527 96.0778 29.3343 96.445 29.2527C97.057 29.1711 97.6282 29.5995 98.1586 30.5379C98.7298 31.4763 99.0154 32.5167 99.0154 33.6591C99.0154 34.5159 99.1582 35.1891 99.4438 35.6787C99.7294 36.1275 99.8314 36.6579 99.7498 37.2699C99.709 37.8819 99.6682 38.6163 99.6274 39.4731C99.5458 40.6155 99.1786 41.7579 98.5258 42.9003C97.873 44.0019 97.2814 44.4915 96.751 44.3691C96.343 44.3283 95.7514 44.5527 94.9762 45.0423C94.1602 45.5319 93.691 45.7767 93.5686 45.7767C93.487 45.7767 93.2422 45.9603 92.8342 46.3275C92.4262 46.6947 91.9774 46.8783 91.4878 46.8783C91.039 46.8783 90.7534 46.9803 90.631 47.1843C90.5494 47.3475 90.5086 47.8779 90.5086 48.7755C90.5086 49.5099 90.529 49.9383 90.5698 50.0607C90.6106 50.1831 90.7738 50.2851 91.0594 50.3667C91.8754 50.5299 93.0178 50.4687 94.4866 50.1831C95.5882 49.9791 96.5878 49.9587 97.4854 50.1219C98.4238 50.2851 98.995 50.5707 99.199 50.9787C99.3214 51.2235 99.5254 51.5295 99.811 51.8967C100.219 52.4271 100.26 53.1207 99.9334 53.9775C99.607 54.8343 99.1174 55.2831 98.4646 55.3239C97.8934 55.4055 97.4242 55.6095 97.057 55.9359C96.6898 56.2623 96.2206 56.5071 95.6494 56.6703C95.0782 56.8743 94.7314 57.0171 94.609 57.0987C94.4458 57.2619 94.099 57.3639 93.5686 57.4047C93.0382 57.4047 92.671 57.3231 92.467 57.1599C92.1814 56.9967 91.8142 56.9967 91.3654 57.1599C90.631 57.4455 89.8966 57.4455 89.1622 57.1599C88.795 56.9967 88.4482 56.9151 88.1218 56.9151C87.8362 56.9151 87.4486 56.7927 86.959 56.5479C86.5102 56.3031 86.2858 56.1195 86.2858 55.9971C86.2858 55.8747 86.0002 55.6095 85.429 55.2015C84.8578 54.7935 84.4702 54.4059 84.2662 54.0387C84.103 53.6307 83.9398 52.8963 83.7766 51.8355C83.6134 50.6523 83.491 49.8363 83.4094 49.3875C83.2054 48.4899 83.3074 47.7759 83.7154 47.2455C83.9194 47.0007 84.0214 46.5723 84.0214 45.9603C84.0214 45.3483 84.1438 44.8179 84.3886 44.3691C85.123 43.0635 85.5718 42.3087 85.735 42.1047C85.939 41.9007 86.3062 41.7987 86.8366 41.7987C87.4078 41.7987 87.9994 41.6967 88.6114 41.4927C89.2642 41.2479 89.6926 40.9623 89.8966 40.6359C90.427 40.0239 90.9982 39.7179 91.6102 39.7179C92.3446 39.7179 92.671 39.1467 92.5894 38.0043C92.5894 37.2699 92.6302 36.7395 92.7118 36.4131C92.7934 36.1275 92.7118 35.8215 92.467 35.4951C92.2222 35.1687 91.9774 35.0667 91.7326 35.1891C91.5694 35.2707 91.0798 35.3319 90.2638 35.3727C89.4478 35.4135 88.897 35.5563 88.6114 35.8011C88.2034 36.0459 87.571 36.1071 86.7142 35.9847C86.3062 35.9031 85.9594 35.9643 85.6738 36.1683C85.1842 36.5355 84.7354 36.6987 84.3274 36.6579C83.9194 36.5763 83.4298 36.2499 82.8586 35.6787C82.2058 35.1075 81.8182 34.5363 81.6958 33.9651C81.6142 33.3939 81.7366 32.5983 82.063 31.5783C82.2262 31.1295 82.4098 30.8031 82.6138 30.5991C82.8586 30.3951 83.2054 30.2523 83.6542 30.1707C84.1438 30.0483 84.5518 29.8851 84.8782 29.6811C85.2046 29.4363 85.7146 29.3139 86.4082 29.3139C87.061 29.3547 87.5098 29.3139 87.7546 29.1915C87.9586 29.0691 88.5094 28.9671 89.407 28.8855ZM106.727 57.3435C107.583 56.8947 109.113 56.8335 111.317 57.1599C111.888 57.2415 112.316 57.2211 112.602 57.0987C113.132 56.8947 113.765 57.0579 114.499 57.5883C114.744 57.7923 115.07 57.8943 115.478 57.8943C116.049 57.8943 116.478 58.0371 116.763 58.3227C117.049 58.6083 117.457 59.2815 117.987 60.3423C118.885 62.1375 119.15 63.3411 118.783 63.9531C118.661 64.1163 118.701 64.4631 118.905 64.9935C119.436 66.2175 119.558 67.1763 119.273 67.8699C119.109 68.1555 119.028 68.9919 119.028 70.3791C119.028 71.9295 118.885 73.0719 118.599 73.8063C118.314 74.5407 117.906 74.8875 117.375 74.8467C117.008 74.7651 116.702 74.8671 116.457 75.1527C116.009 75.5607 115.295 75.6015 114.315 75.2751C113.336 74.9487 112.785 74.4795 112.663 73.8675C112.581 73.5411 112.398 73.0311 112.112 72.3375C111.867 71.6439 111.786 70.7871 111.867 69.7671C111.949 68.7879 111.888 68.1351 111.684 67.8087C111.48 67.4823 111.439 67.1967 111.561 66.9519C111.684 66.7887 111.725 66.3195 111.684 65.5443C111.643 64.7691 111.561 64.2999 111.439 64.1367C111.317 64.0143 111.051 63.9531 110.643 63.9531C110.276 63.9531 110.031 64.0143 109.909 64.1367C109.827 64.2183 109.46 64.2795 108.807 64.3203C108.277 64.4019 107.563 64.5243 106.665 64.6875C105.89 64.8507 105.176 64.8507 104.523 64.6875C103.871 64.5243 103.218 64.5243 102.565 64.6875C100.688 65.1771 99.2194 64.5447 98.1586 62.7903C97.873 62.3415 97.8118 61.7295 97.975 60.9543C98.179 60.1383 98.5054 59.6487 98.9542 59.4855C99.2398 59.4039 99.5254 59.1591 99.811 58.7511C100.178 58.3839 100.627 58.2003 101.157 58.2003C101.729 58.2003 102.137 58.1391 102.381 58.0167C102.626 57.8535 103.299 57.7515 104.401 57.7107C105.503 57.7107 106.278 57.5883 106.727 57.3435ZM63.5037 93.5195C64.4013 93.4379 65.0541 93.4379 65.4621 93.5195C65.9109 93.5603 66.4413 93.5807 67.0533 93.5807C67.7469 93.5807 68.4609 93.7031 69.1953 93.9479C69.9705 94.2335 70.4193 94.3559 70.5417 94.3151C70.9905 94.1519 71.7045 94.6415 72.6837 95.7839C73.2957 96.5183 73.6629 97.0691 73.7853 97.4363C73.9485 97.7627 73.9893 98.2319 73.9077 98.8439C73.8669 99.5375 73.9077 100.109 74.0301 100.557C74.1525 100.966 74.2137 101.557 74.2137 102.332C74.2137 103.108 74.2953 103.618 74.4585 103.862C74.6625 104.189 74.6013 104.944 74.2749 106.127C74.0709 106.779 73.9893 107.412 74.0301 108.024C74.1117 108.636 74.0709 109.207 73.9077 109.738C73.7853 110.186 73.6629 110.819 73.5405 111.635C73.4589 112.41 73.3161 112.94 73.1121 113.226C72.9489 113.512 72.7653 113.94 72.5613 114.511C72.3573 115.001 72.1737 115.307 72.0105 115.429C71.8881 115.552 71.5821 115.613 71.0925 115.613C70.5213 115.613 70.1133 115.735 69.8685 115.98C69.1749 116.592 67.9101 116.837 66.0741 116.714C64.8501 116.633 63.6261 116.592 62.4021 116.592C61.1781 116.551 60.4437 116.47 60.1989 116.347C59.9541 116.225 59.6889 116.204 59.4033 116.286C56.8737 117.224 54.6909 117.122 52.8549 115.98C51.0189 114.838 50.1009 113.022 50.1009 110.533C50.1417 109.595 50.1009 108.962 49.9785 108.636C49.6929 107.901 49.8153 107.269 50.3457 106.739C50.7945 106.331 50.8557 105.433 50.5293 104.046C50.4069 103.516 50.4069 102.924 50.5293 102.271C50.6925 101.578 50.6721 100.986 50.4681 100.496C50.3049 100.007 50.3253 99.5171 50.5293 99.0275C50.7333 98.5379 51.0801 98.1911 51.5697 97.9871C52.3041 97.6199 52.6713 97.1711 52.6713 96.6407C52.6713 96.3143 52.8345 96.0083 53.1609 95.7227C53.4873 95.3963 53.8545 95.1923 54.2625 95.1107C54.7521 95.0291 55.2825 94.8863 55.8537 94.6823C56.4249 94.4783 56.9757 94.3967 57.5061 94.4375C57.9957 94.5191 58.3425 94.4579 58.5465 94.2539C58.7505 94.0499 59.1993 93.9887 59.8929 94.0703C60.5457 94.1111 61.0761 94.0499 61.4841 93.8867C61.9329 93.7235 62.6061 93.6011 63.5037 93.5195ZM66.6861 100.374C66.1149 100.374 65.5437 100.354 64.9725 100.313C64.4013 100.272 63.8913 100.333 63.4425 100.496C62.9937 100.659 62.6061 100.741 62.2797 100.741C61.9533 100.741 61.7493 100.782 61.6677 100.864C61.5453 100.986 60.6273 101.027 58.9137 100.986C58.5465 100.986 58.2813 101.047 58.1181 101.17C57.9549 101.292 57.9345 101.455 58.0569 101.659C58.1385 101.904 58.1589 102.618 58.1181 103.801C58.1181 104.454 58.1385 105.29 58.1793 106.31C58.2609 107.29 58.3221 107.881 58.3629 108.085C58.4853 108.412 58.5465 108.82 58.5465 109.309V110.105L60.8109 110.044C62.2797 109.962 63.1161 109.88 63.3201 109.799C63.5241 109.676 63.9933 109.615 64.7277 109.615C65.3805 109.615 65.7885 109.554 65.9517 109.432C66.1149 109.309 66.1965 109.024 66.1965 108.575C66.1965 108.33 66.3597 107.963 66.6861 107.473C67.0533 107.024 67.1961 106.576 67.1145 106.127C67.0737 106.004 67.0329 105.8 66.9921 105.515C66.9513 105.188 66.9309 104.964 66.9309 104.842C66.8493 104.433 66.8901 104.127 67.0533 103.923C67.2573 103.719 67.3185 103.434 67.2369 103.067C67.0329 101.883 67.0329 101.21 67.2369 101.047C67.7673 100.598 67.5837 100.374 66.6861 100.374ZM70.8477 122.896C72.3165 122.161 73.7649 122.141 75.1929 122.834C75.6825 123.079 76.0905 123.14 76.4169 123.018C77.0697 122.732 77.5389 122.957 77.8245 123.691C77.9469 123.936 78.2325 124.283 78.6813 124.732C79.1709 125.221 79.3545 125.792 79.2321 126.445C79.1097 127.098 78.7017 127.608 78.0081 127.975C77.6001 128.179 77.2125 128.444 76.8453 128.771C76.4373 129.097 75.8457 129.281 75.0705 129.322C74.2545 129.362 73.6425 129.444 73.2345 129.566C71.8065 129.934 70.4805 130.056 69.2565 129.934C68.3997 129.852 67.8489 129.913 67.6041 130.117C67.4001 130.28 67.3389 130.729 67.4205 131.464C67.4613 131.994 67.4613 132.361 67.4205 132.565C67.3797 132.728 67.2369 133.014 66.9921 133.422C66.7065 133.912 66.5433 134.462 66.5025 135.074C66.4617 135.686 66.5637 136.156 66.8085 136.482C66.9717 136.727 67.0125 137.114 66.9309 137.645C66.7677 138.787 66.7677 139.787 66.9309 140.644C67.0941 141.46 66.9513 142.194 66.5025 142.847C66.0945 143.54 65.4825 143.969 64.6665 144.132C63.4425 144.418 62.3001 144.336 61.2393 143.887C60.1785 143.479 59.6481 142.908 59.6481 142.174C59.6481 141.766 59.5665 141.439 59.4033 141.194C59.2401 140.95 59.1789 140.48 59.2197 139.787C59.3013 139.134 59.4849 138.665 59.7705 138.379C60.3417 137.686 60.3825 137.033 59.8929 136.421C59.5665 136.013 59.3217 135.401 59.1585 134.585C59.0361 133.769 59.0973 133.238 59.3421 132.994C59.5461 132.79 59.6481 132.647 59.6481 132.565C59.6481 132.443 59.5461 132.116 59.3421 131.586L59.0361 130.729L55.9761 130.79C54.5481 130.831 53.6505 130.831 53.2833 130.79C52.9161 130.75 52.6101 130.668 52.3653 130.546C51.7125 130.178 51.3045 129.974 51.1413 129.934C50.9781 129.893 50.6925 129.954 50.2845 130.117C49.5909 130.362 48.8769 130.342 48.1425 130.056C47.4081 129.77 46.8573 129.301 46.4901 128.648C46.1229 128.036 45.9801 127.302 46.0617 126.445C46.1841 125.548 46.4697 124.997 46.9185 124.793C48.0201 124.222 48.9585 123.956 49.7337 123.997C50.2641 123.997 50.7945 123.956 51.3249 123.875C51.8145 123.834 52.4673 123.895 53.2833 124.058C54.1401 124.222 54.7317 124.222 55.0581 124.058C55.3845 123.895 55.8537 123.834 56.4657 123.875C58.1385 124.038 59.1993 124.12 59.6481 124.12C60.1377 124.12 60.5049 124.018 60.7497 123.814C60.9945 123.61 61.1985 123.508 61.3617 123.508C61.5249 123.508 61.9533 123.569 62.6469 123.691C63.5445 123.854 64.1973 123.854 64.6053 123.691C64.9725 123.528 65.9313 123.446 67.4817 123.446C68.6241 123.406 69.3381 123.365 69.6237 123.324C69.9093 123.283 70.3173 123.14 70.8477 122.896ZM115.05 94.5599C116.151 94.2335 117.151 94.3967 118.049 95.0495C118.987 95.6615 119.456 96.5183 119.456 97.6199C119.456 98.1911 119.558 98.6399 119.762 98.9663C119.966 99.2111 120.15 99.7007 120.313 100.435C120.517 101.17 120.619 101.802 120.619 102.332C120.619 103.026 120.599 103.903 120.558 104.964C120.517 106.147 120.578 107.167 120.741 108.024C120.986 109.166 121.109 109.88 121.109 110.166C121.149 110.411 121.088 110.656 120.925 110.9C120.476 111.472 120.395 111.961 120.68 112.369C120.843 112.573 120.884 113.022 120.803 113.716C120.721 114.409 120.782 115.021 120.986 115.552C121.149 116.082 121.17 116.572 121.047 117.02C120.966 117.428 120.945 117.959 120.986 118.612C121.027 119.142 120.884 119.774 120.558 120.509C120.272 121.202 119.946 121.61 119.579 121.733C118.64 122.059 118.008 122.243 117.681 122.284C117.396 122.284 117.008 122.161 116.519 121.916C115.172 121.223 114.499 120.59 114.499 120.019C114.499 119.774 114.356 119.407 114.071 118.918C113.867 118.51 113.744 117.551 113.703 116.041C113.663 114.532 113.744 113.593 113.948 113.226C114.071 112.981 114.173 112.614 114.254 112.124L114.377 111.329L113.397 111.451C112.745 111.533 112.235 111.512 111.867 111.39C111.5 111.268 111.011 111.308 110.399 111.512C109.746 111.716 109.215 111.778 108.807 111.696C108.399 111.614 108.032 111.574 107.706 111.574C107.257 111.574 106.461 111.002 105.319 109.86C105.033 109.574 104.891 109.207 104.891 108.758C104.891 108.31 105.033 107.942 105.319 107.657C105.605 107.33 105.747 107.106 105.747 106.984C105.747 106.739 105.931 106.494 106.298 106.249C106.665 105.964 107.012 105.821 107.339 105.821C107.747 105.821 108.155 105.637 108.563 105.27C108.889 104.984 109.154 104.821 109.358 104.78C109.603 104.739 110.235 104.719 111.255 104.719C112.643 104.719 113.397 104.637 113.52 104.474C113.642 104.311 113.683 103.454 113.642 101.904C113.601 100.353 113.499 99.3335 113.336 98.8439C113.132 98.2727 113.091 97.8239 113.214 97.4975C113.336 97.1711 113.397 96.7835 113.397 96.3347C113.397 95.9675 113.54 95.6207 113.826 95.2943C114.152 94.9271 114.56 94.6823 115.05 94.5599ZM89.407 96.8855C90.2638 96.8039 91.0186 96.7835 91.6714 96.8243C92.8546 96.9059 93.7726 96.9059 94.4254 96.8243C94.8742 96.7427 95.2414 96.8039 95.527 97.0079C95.7718 97.2527 96.0778 97.3343 96.445 97.2527C97.057 97.1711 97.6282 97.5995 98.1586 98.5379C98.7298 99.4763 99.0154 100.517 99.0154 101.659C99.0154 102.516 99.1582 103.189 99.4438 103.679C99.7294 104.128 99.8314 104.658 99.7498 105.27C99.709 105.882 99.6682 106.616 99.6274 107.473C99.5458 108.616 99.1786 109.758 98.5258 110.9C97.873 112.002 97.2814 112.492 96.751 112.369C96.343 112.328 95.7514 112.553 94.9762 113.042C94.1602 113.532 93.691 113.777 93.5686 113.777C93.487 113.777 93.2422 113.96 92.8342 114.328C92.4262 114.695 91.9774 114.878 91.4878 114.878C91.039 114.878 90.7534 114.98 90.631 115.184C90.5494 115.348 90.5086 115.878 90.5086 116.776C90.5086 117.51 90.529 117.938 90.5698 118.061C90.6106 118.183 90.7738 118.285 91.0594 118.367C91.8754 118.53 93.0178 118.469 94.4866 118.183C95.5882 117.979 96.5878 117.959 97.4854 118.122C98.4238 118.285 98.995 118.571 99.199 118.979C99.3214 119.224 99.5254 119.53 99.811 119.897C100.219 120.427 100.26 121.121 99.9334 121.978C99.607 122.834 99.1174 123.283 98.4646 123.324C97.8934 123.406 97.4242 123.61 97.057 123.936C96.6898 124.262 96.2206 124.507 95.6494 124.67C95.0782 124.874 94.7314 125.017 94.609 125.099C94.4458 125.262 94.099 125.364 93.5686 125.405C93.0382 125.405 92.671 125.323 92.467 125.16C92.1814 124.997 91.8142 124.997 91.3654 125.16C90.631 125.446 89.8966 125.446 89.1622 125.16C88.795 124.997 88.4482 124.915 88.1218 124.915C87.8362 124.915 87.4486 124.793 86.959 124.548C86.5102 124.303 86.2858 124.12 86.2858 123.997C86.2858 123.875 86.0002 123.61 85.429 123.202C84.8578 122.794 84.4702 122.406 84.2662 122.039C84.103 121.631 83.9398 120.896 83.7766 119.836C83.6134 118.652 83.491 117.836 83.4094 117.388C83.2054 116.49 83.3074 115.776 83.7154 115.246C83.9194 115.001 84.0214 114.572 84.0214 113.96C84.0214 113.348 84.1438 112.818 84.3886 112.369C85.123 111.064 85.5718 110.309 85.735 110.105C85.939 109.901 86.3062 109.799 86.8366 109.799C87.4078 109.799 87.9994 109.697 88.6114 109.493C89.2642 109.248 89.6926 108.962 89.8966 108.636C90.427 108.024 90.9982 107.718 91.6102 107.718C92.3446 107.718 92.671 107.147 92.5894 106.004C92.5894 105.27 92.6302 104.74 92.7118 104.413C92.7934 104.128 92.7118 103.822 92.467 103.495C92.2222 103.169 91.9774 103.067 91.7326 103.189C91.5694 103.271 91.0798 103.332 90.2638 103.373C89.4478 103.414 88.897 103.556 88.6114 103.801C88.2034 104.046 87.571 104.107 86.7142 103.985C86.3062 103.903 85.9594 103.964 85.6738 104.168C85.1842 104.535 84.7354 104.699 84.3274 104.658C83.9194 104.576 83.4298 104.25 82.8586 103.679C82.2058 103.108 81.8182 102.536 81.6958 101.965C81.6142 101.394 81.7366 100.598 82.063 99.5783C82.2262 99.1295 82.4098 98.8031 82.6138 98.5991C82.8586 98.3951 83.2054 98.2523 83.6542 98.1707C84.1438 98.0483 84.5518 97.8851 84.8782 97.6811C85.2046 97.4363 85.7146 97.3139 86.4082 97.3139C87.061 97.3547 87.5098 97.3139 87.7546 97.1915C87.9586 97.0691 88.5094 96.9671 89.407 96.8855ZM106.727 125.344C107.583 124.895 109.113 124.834 111.317 125.16C111.888 125.242 112.316 125.221 112.602 125.099C113.132 124.895 113.765 125.058 114.499 125.588C114.744 125.792 115.07 125.894 115.478 125.894C116.049 125.894 116.478 126.037 116.763 126.323C117.049 126.608 117.457 127.282 117.987 128.342C118.885 130.138 119.15 131.341 118.783 131.953C118.661 132.116 118.701 132.463 118.905 132.994C119.436 134.218 119.558 135.176 119.273 135.87C119.109 136.156 119.028 136.992 119.028 138.379C119.028 139.93 118.885 141.072 118.599 141.806C118.314 142.541 117.906 142.888 117.375 142.847C117.008 142.765 116.702 142.867 116.457 143.153C116.009 143.561 115.295 143.602 114.315 143.275C113.336 142.949 112.785 142.48 112.663 141.868C112.581 141.541 112.398 141.031 112.112 140.338C111.867 139.644 111.786 138.787 111.867 137.767C111.949 136.788 111.888 136.135 111.684 135.809C111.48 135.482 111.439 135.197 111.561 134.952C111.684 134.789 111.725 134.32 111.684 133.544C111.643 132.769 111.561 132.3 111.439 132.137C111.317 132.014 111.051 131.953 110.643 131.953C110.276 131.953 110.031 132.014 109.909 132.137C109.827 132.218 109.46 132.28 108.807 132.32C108.277 132.402 107.563 132.524 106.665 132.688C105.89 132.851 105.176 132.851 104.523 132.688C103.871 132.524 103.218 132.524 102.565 132.688C100.688 133.177 99.2194 132.545 98.1586 130.79C97.873 130.342 97.8118 129.73 97.975 128.954C98.179 128.138 98.5054 127.649 98.9542 127.486C99.2398 127.404 99.5254 127.159 99.811 126.751C100.178 126.384 100.627 126.2 101.157 126.2C101.729 126.2 102.137 126.139 102.381 126.017C102.626 125.854 103.299 125.752 104.401 125.711C105.503 125.711 106.278 125.588 106.727 125.344Z" fill="#01BF99"/>
</svg>
